<svg width="80" height="80" viewBox="0 0 80 80" fill="none" xmlns="http://www.w3.org/2000/svg">
<path fill-rule="evenodd" clip-rule="evenodd" d="M26.1377 0.000172791C26.1189 0.0324533 25.725 0.168341 25.2625 0.302296C23.2011 0.899001 21.2219 1.76159 18.9725 3.04362C15.8846 4.80349 12.328 7.44343 10.7677 9.13381L10.3833 9.55017L10.4189 10.0938C10.5458 12.0395 10.8741 14.0056 11.3476 15.655C11.6616 16.7487 12.2609 18.3653 12.7406 19.4121C13.2122 20.4416 14.8477 23.1824 15.5281 24.0837C17.0758 26.1338 19.0599 28.1653 20.8924 29.5763C21.3441 29.9242 21.364 29.9519 21.2312 30.0474C21.1535 30.1033 20.6834 30.4862 20.1865 30.8985C16.5276 33.9343 13.6833 37.8719 12.0279 42.1931C11.1469 44.4929 10.5083 47.5519 10.4349 49.8232L10.4179 50.3497L10.8647 50.8242C13.2087 53.314 18.0393 56.5943 21.9934 58.3814C23.1511 58.9046 25.707 59.783 26.0717 59.783H26.2001L26.2004 50.3357C26.2006 40.0766 26.2045 39.9288 26.5166 38.3353C26.8035 36.8703 27.3591 35.1365 27.8777 34.0876L28.0386 33.7622L29.1098 34.1542C33.1068 35.6166 36.6443 36.1904 40.9377 36.0727C42.1023 36.0408 43.106 35.9967 43.1681 35.9745C43.2302 35.9524 43.586 35.9025 43.9587 35.8637C44.3313 35.8248 44.6744 35.7814 44.7209 35.7672C44.7675 35.7531 45.0089 35.712 45.2574 35.676C46.8587 35.4438 49.7566 34.6523 51.3184 34.0208C51.6394 33.8909 51.9382 33.7847 51.9823 33.7847C52.235 33.7847 53.3267 36.9848 53.5815 38.4721C53.8668 40.1378 53.8684 40.2045 53.8684 50.3242V59.783H53.9939C54.4909 59.783 57.3758 58.7319 58.9061 57.9932C62.5708 56.2244 67.0728 53.096 69.1707 50.8606L69.6506 50.3492L69.6341 49.823C69.6115 49.0997 69.4716 47.8075 69.3155 46.8795C68.2894 40.7802 64.8802 35.0215 59.8256 30.8498C59.3597 30.4653 58.9192 30.1082 58.8466 30.0562C58.7297 29.9724 58.8585 29.8391 59.9759 28.8873C63.6557 25.7532 66.2903 22.1267 67.9364 17.9299C68.9435 15.3623 69.4448 13.0154 69.6404 9.95232L69.6656 9.55722L69.2064 9.06393C67.1012 6.80266 62.2793 3.46288 58.7245 1.80382C57.3662 1.16981 56.4065 0.799068 55.0639 0.389473C54.4636 0.206325 53.95 0.0327443 53.9224 0.00365316C53.8936 -0.0268877 53.8643 4.12802 53.8533 9.83654C53.8346 19.5038 53.8315 19.7406 53.7153 20.5439C53.4868 22.1238 53.1158 23.5229 52.562 24.8931C52.3793 25.3449 52.1839 25.8076 52.1277 25.9211L52.0255 26.1276L51.1824 25.8051C46.2575 23.9211 40.5816 23.3202 35.2911 24.1231C34.4062 24.2573 32.8981 24.5625 32.1573 24.7572C30.9626 25.0712 28.5696 25.8702 28.1113 26.1081C28.0446 26.1427 27.9258 25.941 27.6964 25.404C27.0594 23.9127 26.6562 22.5123 26.3804 20.8343L26.2295 19.9157L26.2007 9.92864C26.1848 4.43584 26.1565 -0.032011 26.1377 0.000172791ZM42.8293 26.1403C45.1274 26.651 47.051 27.6734 48.8147 29.3219C49.1253 29.6122 49.3902 29.8656 49.4035 29.8852C49.4557 29.9622 49.1709 30.2442 48.2501 31.0278C46.5832 32.4462 44.9325 33.2619 42.6599 33.7901C41.9678 33.9509 38.9972 34.0187 38.1232 33.8934C35.732 33.5508 33.6351 32.6074 31.8185 31.0568C30.9424 30.3089 30.6539 30.0166 30.6909 29.9141C30.7472 29.7582 31.7047 28.8826 32.3549 28.3924C34.2073 26.996 36.1299 26.2331 38.5944 25.9165C39.3521 25.819 42.018 25.96 42.8293 26.1403ZM0.125524 71.6279C0.00101637 71.7772 0 71.7999 0 74.4175C0 75.8691 0.0256354 77.2909 0.056974 77.5773C0.180973 78.7102 0.550768 79.4334 1.17539 79.7642C1.64558 80.0132 4.55916 80.0169 5.02546 79.7691C5.68193 79.4203 6.04896 78.6389 6.15698 77.3603C6.18555 77.0218 6.20949 75.6467 6.21011 74.3044C6.21152 71.2984 6.26263 71.4775 5.40327 71.4775C5.02495 71.4775 4.78853 71.5198 4.72794 71.5983C4.64601 71.7045 4.63274 72.0405 4.61834 74.3769C4.60044 77.2833 4.5931 77.3502 4.26475 77.5877C4.07277 77.7264 2.2304 77.7653 1.96044 77.6362C1.87404 77.5949 1.75349 77.4209 1.69245 77.2496C1.58946 76.9605 1.58144 76.7524 1.58127 74.3583C1.58099 71.2689 1.63824 71.4775 0.790522 71.4775C0.393567 71.4775 0.217845 71.5172 0.125524 71.6279ZM6.88883 71.6708C6.77963 71.8577 6.7759 71.9929 6.7759 75.7665C6.7759 79.2769 6.78527 79.6822 6.86918 79.8016C6.98674 79.9688 7.87303 80.0379 8.08788 79.8966L8.24237 79.7951L8.25728 76.88L8.27225 73.9649L8.63803 74.7267C8.83922 75.1456 9.43228 76.4017 9.95589 77.518C10.4796 78.6343 10.988 79.6346 11.0857 79.7409C11.2449 79.914 11.38 79.9377 12.3794 79.967L13.4953 80V75.8388C13.4953 71.8237 13.4915 71.6741 13.3861 71.5775C13.2477 71.4508 12.308 71.4465 12.1156 71.5717L11.9708 71.6659V74.5195C11.9708 76.0889 11.9517 77.3712 11.9284 77.3688C11.8695 77.3631 10.7552 74.9925 10.3051 73.9155C9.82731 72.7724 9.35441 71.9008 9.08372 71.6644C8.8976 71.5019 8.74763 71.4775 7.93571 71.4775C7.07703 71.4775 6.99267 71.493 6.88883 71.6708ZM51.395 71.5416C51.3225 71.5679 51.2404 71.6991 51.2096 71.8378C51.121 72.237 51.1675 79.651 51.2597 79.8086C51.3621 79.9839 52.4785 79.984 52.581 79.8087C52.6364 79.714 52.6613 79.0096 52.6826 76.9414L52.7109 74.1996L53.615 77.0669L54.5192 79.9342H55.1954H55.8717L56.7757 77.0831L57.6799 74.2319L57.7081 76.9576C57.7294 79.0111 57.7544 79.7142 57.8097 79.8087C57.9038 79.9697 58.8095 80.0351 59.0209 79.8961L59.1762 79.794V75.7293C59.1762 71.9491 59.1693 71.6598 59.0774 71.5953C59.023 71.557 58.5466 71.5258 58.0186 71.5258C56.7666 71.5258 56.858 71.4165 56.1781 73.7289C55.4342 76.2588 55.2334 76.8306 55.1366 76.6933C55.0937 76.6322 54.7616 75.5616 54.3988 74.3141C53.5453 71.3793 53.6518 71.5312 52.433 71.51C51.9336 71.5013 51.4665 71.5155 51.395 71.5416ZM60.8702 71.6302C60.4547 71.8235 60.1991 72.1893 59.995 72.883L59.8256 73.4588L59.8264 75.73C59.8273 77.8724 59.8346 78.0326 59.957 78.5546C60.1126 79.2181 60.4285 79.7219 60.7855 79.8758C61.1342 80.0261 65.0791 80.0209 65.4298 79.8696C65.8013 79.7096 66.1413 79.1059 66.274 78.371C66.359 77.8994 66.3756 77.4545 66.3756 75.6333C66.3756 73.5527 66.3698 73.4369 66.2418 72.9521C66.0854 72.3598 65.7668 71.8309 65.462 71.6575C65.1183 71.462 61.2808 71.4391 60.8702 71.6302ZM67.0926 71.579L66.9626 71.6682L66.9797 74.7381C66.9963 77.7365 66.9999 77.8198 67.1316 78.319C67.307 78.9833 67.6829 79.5496 68.0929 79.7669C68.3613 79.9092 68.6525 79.9342 70.0459 79.9342C71.5005 79.9342 71.7198 79.9137 72.0094 79.7511C72.4282 79.5159 72.7867 78.976 72.9601 78.319C73.0918 77.82 73.0954 77.7351 73.1128 74.7392L73.1304 71.6707L72.982 71.574C72.9004 71.521 72.5938 71.4775 72.3008 71.4775C71.4955 71.4775 71.5422 71.2937 71.5422 74.4605C71.5422 77.8826 71.5985 77.7585 70.0459 77.7585C69.0955 77.7585 68.8325 77.6728 68.665 77.3083C68.5552 77.0693 68.5495 76.9299 68.5495 74.4605C68.5495 71.2845 68.599 71.4744 67.7731 71.4836C67.4704 71.4869 67.1641 71.5299 67.0926 71.579ZM14.1165 75.7738V79.9825H14.8787H15.641L15.6444 79.0885L15.6476 78.1945L15.9112 79.0885L16.1746 79.9825L17.3054 79.9817C19.1336 79.9805 19.6931 79.8044 20.0899 79.1054C20.4071 78.5467 20.4689 77.9969 20.4689 75.73C20.4689 73.9193 20.4586 73.7108 20.3499 73.3088C20.1761 72.6658 19.9109 72.1977 19.5475 71.8921L19.2266 71.6224L16.6715 71.5937L14.1165 71.5649V75.7738ZM21.7768 71.6923C21.6577 71.7463 21.4755 71.9355 21.372 72.1126C21.0848 72.6043 21.0476 73.0992 21.0719 76.1034C21.0914 78.5014 21.101 78.7042 21.2125 79.0643C21.3581 79.5352 21.4823 79.7277 21.7336 79.8721C22.0118 80.0321 26.3775 80.0269 26.4712 79.8665C26.5658 79.7046 26.5633 78.0879 26.4684 77.9828C26.4296 77.9397 25.5593 77.8828 24.5344 77.8562L22.671 77.8079L22.6587 76.5515L22.6465 75.2951L22.8711 76.0441L23.0959 76.7931L24.5774 76.7917C25.3984 76.7908 26.0963 76.7498 26.1426 76.6998C26.2129 76.6236 26.1864 76.4707 25.9756 75.7347L25.7252 74.8602H24.2517C23.181 74.8602 22.7598 74.8285 22.7106 74.7442C22.6273 74.6017 22.6223 74.1397 22.7012 73.8873C22.7571 73.7086 22.8376 73.7004 24.5324 73.7004C26.0686 73.7004 26.3169 73.6801 26.3938 73.5485C26.4593 73.4362 26.4825 73.1988 26.4825 72.6372C26.4825 72.0757 26.4593 71.8383 26.3938 71.726C26.316 71.5929 26.0389 71.5754 24.1493 71.5841C22.8889 71.59 21.9035 71.6349 21.7768 71.6923ZM27.248 71.789C27.172 71.9746 27.1601 72.5278 27.1601 75.8772C27.1601 78.761 27.1774 79.7802 27.2278 79.8665C27.323 80.0294 28.5731 80.0253 28.7014 79.8617C28.7831 79.7575 28.7982 79.4953 28.811 77.9529L28.8258 76.1649L29.0825 76.9864L29.3391 77.8079L30.4282 77.8562C31.4228 77.9004 31.5243 77.9208 31.5973 78.0922C31.6413 78.1954 31.6785 78.3911 31.6798 78.5271C31.6883 79.3587 31.7293 79.7379 31.8236 79.8559C31.9765 80.0473 33.2203 80.0325 33.3145 79.8382C33.3633 79.7374 33.3776 79.4095 33.3618 78.7509C33.3355 77.6592 33.2208 77.1452 32.9359 76.8414C32.8361 76.7351 32.7537 76.6264 32.7527 76.5998C32.7518 76.5732 32.8377 76.4504 32.9438 76.3268C33.2175 76.0078 33.3307 75.534 33.3607 74.5826C33.4072 73.1087 33.1856 72.1142 32.7323 71.7619C32.5114 71.5903 32.3285 71.5782 29.916 71.5762L27.3358 71.5741L27.248 71.789ZM39.3353 71.8399C39.291 71.9861 38.6932 73.8432 38.007 75.9669C37.3207 78.0906 36.7593 79.8629 36.7593 79.9053C36.7593 79.9478 37.1349 79.9825 37.5941 79.9825H38.4289L38.9105 78.4746C39.1754 77.6453 39.4152 76.967 39.4434 76.9673C39.4716 76.9677 39.5834 77.32 39.6919 77.7503L39.8891 78.5328H40.8923H41.8956L42.1366 79.2566L42.3776 79.9805L43.2105 79.9814C43.7895 79.9822 44.0434 79.9494 44.0434 79.8739C44.0434 79.8142 43.7539 78.8682 43.4002 77.7718C43.0464 76.6754 42.5243 75.0404 42.2399 74.1385C41.414 71.5184 41.4574 71.5741 40.239 71.5741H39.416L39.3353 71.8399ZM44.5885 71.7509C44.5048 71.9093 44.4951 72.339 44.4951 75.8964C44.4951 79.4263 44.505 79.8716 44.5844 79.9238C44.729 80.0188 45.83 79.9909 45.9878 79.8883L46.1326 79.794L46.1342 77.9795L46.1359 76.1649L46.4024 77.0095L46.669 77.854L47.717 77.8552C48.5102 77.856 48.7904 77.8881 48.8698 77.9876C48.9511 78.0893 48.9823 78.2937 49.0079 78.8914C49.0265 79.3221 49.0753 79.7344 49.1183 79.8232C49.1821 79.9547 49.312 79.9825 49.8622 79.9825C50.6662 79.9825 50.7063 79.9416 50.7063 79.1235C50.7063 77.8422 50.5204 76.9905 50.1888 76.7518L50.0266 76.6351L50.2596 76.3147C50.3877 76.1384 50.5268 75.8535 50.5688 75.6815C50.7759 74.8333 50.7123 73.1521 50.4432 72.3626C50.1735 71.5709 50.205 71.5787 47.2565 71.5762C44.8331 71.5742 44.6765 71.5845 44.5885 71.7509ZM73.8614 71.8288C73.7475 72.0767 73.7444 72.1848 73.7444 75.9329C73.7444 79.737 73.7458 79.7837 73.8622 79.8904C74.0464 80.059 75.3148 79.9747 75.3832 79.7892C75.4126 79.7095 75.4378 78.8614 75.4394 77.9046L75.4421 76.1649L75.7002 77.0106L75.9584 77.8562H77.0212H78.0841L78.2011 78.1109C78.2934 78.3117 78.3181 78.5043 78.3181 79.0221C78.3181 79.9546 78.3428 79.9829 79.155 79.9811C79.5177 79.9802 79.8497 79.9413 79.8928 79.8946C80.0828 79.6887 80.0049 77.8183 79.7798 77.185C79.7182 77.0114 79.5927 76.821 79.5011 76.7617C79.4095 76.7026 79.336 76.631 79.3379 76.6028C79.3399 76.5746 79.4478 76.4194 79.5779 76.2578C79.885 75.8765 79.9709 75.4509 79.977 74.2803C79.9843 72.8626 79.7437 71.9886 79.2603 71.6767C79.1567 71.6099 78.2087 71.5741 76.5398 71.5741H73.9784L73.8614 71.8288ZM64.4894 73.8225C64.721 74.092 64.7663 74.3894 64.7663 75.641C64.7663 76.8995 64.7026 77.332 64.4774 77.602C64.2813 77.837 61.9763 77.837 61.7802 77.602C61.5544 77.3312 61.4913 76.9002 61.4913 75.6272C61.4913 73.6678 61.5535 73.5956 63.2135 73.6292C64.1851 73.6489 64.3633 73.6758 64.4894 73.8225ZM31.6007 73.8691C31.7304 73.9945 31.787 74.4791 31.7336 75.0068C31.6816 75.5214 31.5198 75.5811 30.0822 75.6171L28.7976 75.6492V74.7683C28.7976 73.9465 28.8061 73.8812 28.9246 73.7952C29.1125 73.6588 31.4498 73.7234 31.6007 73.8691ZM48.9502 73.9333C49.1002 74.1654 49.1197 75.0492 48.9802 75.288C48.8283 75.548 48.6258 75.585 47.3565 75.585H46.1241L46.1239 74.8118C46.1238 74.3866 46.1257 73.9873 46.1281 73.9246C46.1354 73.7396 46.3221 73.7155 47.6092 73.733C48.7231 73.7481 48.8422 73.7659 48.9502 73.9333ZM78.2696 73.9832C78.3528 74.1592 78.3757 74.3339 78.3631 74.6975C78.3492 75.0956 78.3188 75.214 78.1871 75.382C78.0377 75.5724 77.945 75.587 76.7026 75.617L75.3775 75.649L75.3938 74.7513C75.4095 73.888 75.4155 73.8509 75.5513 73.7814C75.6289 73.7416 76.2475 73.7183 76.926 73.7297C78.1546 73.7501 78.1598 73.7511 78.2696 73.9832ZM18.6503 73.9919C18.8568 74.2699 18.9369 74.7755 18.9408 75.8266C18.9447 76.8557 18.8724 77.2698 18.6421 77.5374C18.5099 77.6912 18.3273 77.7149 17.0668 77.7428L15.641 77.7743V75.7857V73.797H17.0733C18.4238 73.797 18.5138 73.8081 18.6503 73.9919ZM40.8477 75.1606C41.1559 76.1688 41.2191 76.4449 41.157 76.5123C41.0566 76.621 39.748 76.6232 39.648 76.5148C39.5893 76.451 39.6632 76.1481 39.9779 75.1631C40.201 74.465 40.4007 73.8937 40.4219 73.8937C40.443 73.8937 40.6346 74.4638 40.8477 75.1606Z" fill="black"/>
</svg>
